<svg
    xmlns="http://www.w3.org/2000/svg"
    viewBox="0 0 648.66 130.56">
    <title>dialogikTV Logo</title>
    <path
        class="logo-letter-1"
        d="M64.57,22.77H96.38L74.19,127.07H49.05l-2.8-9.94H45.17a23.51,23.51,0,0,1-2.88,3.34,25,25,0,0,1-4.88,3.72,28.44,28.44,0,0,1-7,3,33.55,33.55,0,0,1-9.31,1.17,23.58,23.58,0,0,1-9.24-1.63,16.67,16.67,0,0,1-6.2-4.43,17.1,17.1,0,0,1-3.5-6.75,32.64,32.64,0,0,1-1.08-8.61q0-2,.31-6.44a69,69,0,0,1,1.47-9.78,70,70,0,0,1,3.42-11,38.4,38.4,0,0,1,6.05-10.32,30.74,30.74,0,0,1,9.39-7.68,28,28,0,0,1,13.5-3,31.14,31.14,0,0,1,5.28.47,19.75,19.75,0,0,1,5.35,1.7,13.89,13.89,0,0,1,7.53,9.63h1.09ZM45.63,73.83q-3.72,0-6.21,4.11a39.49,39.49,0,0,0-4,9.55,72.29,72.29,0,0,0-2.25,10.86,69.34,69.34,0,0,0-.7,8.07,12.8,12.8,0,0,0,.93,5.2,3.53,3.53,0,0,0,3.57,2.1,7,7,0,0,0,3-.7,15.47,15.47,0,0,0,2.79-1.71A14.74,14.74,0,0,0,45,109.22c.62-.73,1.14-1.35,1.55-1.87l6.06-28.24a21.59,21.59,0,0,0-2.88-3.5A5.68,5.68,0,0,0,45.63,73.83Z"
        transform="translate(-1.09 -22.58)"
        style="fill:#00acee"/>
    <path
        d="M119.51,127.07H88l14.13-66.74h31.81ZM138,40a12.43,12.43,0,0,1-1.48,6.21,14.56,14.56,0,0,1-3.88,4.5,16.58,16.58,0,0,1-5.51,2.8,22,22,0,0,1-6.36.93,17.61,17.61,0,0,1-10.4-3q-4.18-2.94-4.19-9.31a13.21,13.21,0,0,1,1.4-6.13,12.85,12.85,0,0,1,3.8-4.5A17.53,17.53,0,0,1,117,28.82a23.37,23.37,0,0,1,6.59-.93,17.34,17.34,0,0,1,10.25,2.95C136.58,32.8,138,35.86,138,40Z"
        transform="translate(-1.09 -22.58)"
        style="fill:#00acee"/>
    <path
        d="M146.21,66.07a70.58,70.58,0,0,1,16.21-5.67A89.24,89.24,0,0,1,181,58.62a73,73,0,0,1,16.45,1.55,27.77,27.77,0,0,1,10.4,4.5,16,16,0,0,1,5.44,7,25.44,25.44,0,0,1,1.55,9.15,56.4,56.4,0,0,1-.39,6.37q-.39,3.42-.85,5.74l-7.3,34.15h-25l-2.79-9.94h-.93A33.88,33.88,0,0,1,166,125.44a32.69,32.69,0,0,1-13.11,2.87,25.12,25.12,0,0,1-7.3-1.09,18.45,18.45,0,0,1-6.36-3.34,16.54,16.54,0,0,1-4.5-5.74,19.07,19.07,0,0,1-1.71-8.46q0-8.07,4.43-12.8a27.32,27.32,0,0,1,11.64-7.14,66.11,66.11,0,0,1,16.29-3q9.09-.61,18.24-.62c.21-1,.47-2.51.78-4.42a32.09,32.09,0,0,0,.46-5,9.82,9.82,0,0,0-1.47-5.2Q181.9,69,177.25,69c-3.63,0-6.29,1.06-8,3.18a16.46,16.46,0,0,0-3.33,7.68H143.26ZM181.9,93.39h-2.79a22.33,22.33,0,0,0-7.68,1.16,14.42,14.42,0,0,0-5.13,3,11.94,11.94,0,0,0-2.87,4.19,12.44,12.44,0,0,0-.93,4.65q0,3.73,1.94,5.59a6.39,6.39,0,0,0,4.58,1.86,10.84,10.84,0,0,0,6.44-2.32,9.89,9.89,0,0,0,4-6.21Z"
        transform="translate(-1.09 -22.58)"
        style="fill:#00acee"/>
    <path
        d="M250.81,127.07H219.15l22-104.3H273Z"
        transform="translate(-1.09 -22.58)"
        style="fill:#00acee"/>
    <path
        d="M315.07,58.62q18.46,0,26.85,6.52,8.85,6.83,8.85,22.66a45.57,45.57,0,0,1-3.26,17.62,34.35,34.35,0,0,1-9.16,13q-11.79,9.94-34.14,9.94-19.09,0-27.32-7.3Q268,113.41,268,98.2a40.43,40.43,0,0,1,4.11-18.32A36.33,36.33,0,0,1,284,66.22Q295.36,58.63,315.07,58.62Zm-10.55,59.13c2.58,0,4.83-1.44,6.75-4.34a36.79,36.79,0,0,0,4.58-10.63,96.72,96.72,0,0,0,2.56-13A96.91,96.91,0,0,0,319.26,78a19.89,19.89,0,0,0-.85-6.6,3.51,3.51,0,0,0-3.65-2.25c-2.8,0-5.2,1.5-7.22,4.5a39.48,39.48,0,0,0-4.89,10.71,80,80,0,0,0-2.71,12.73,85.17,85.17,0,0,0-.86,10.56Q299.08,117.75,304.52,117.75Z"
        transform="translate(-1.09 -22.58)"
        style="fill:#00acee"/>
    <path
        d="M418.75,60.33h25.14L431.17,120.7a44.76,44.76,0,0,1-4.66,12.88,32.09,32.09,0,0,1-9.08,10.25,44.69,44.69,0,0,1-14.59,6.83,79.52,79.52,0,0,1-21.34,2.48c-1.55,0-3.42,0-5.59-.08l-6.67-.15c-2.28-.06-4.45-.13-6.52-.23s-3.73-.21-5-.31l2.95-11.18a72.16,72.16,0,0,0,10.17.85c3.46.05,6.44.08,8.92.08a30.73,30.73,0,0,0,7.84-.85,12.86,12.86,0,0,0,5.28-2.72,13.74,13.74,0,0,0,3.41-5,34.76,34.76,0,0,0,2.1-7.6l1.86-10.09h-1.09a29.32,29.32,0,0,1-2.71,3.34A22.87,22.87,0,0,1,391.9,123a26.59,26.59,0,0,1-6.6,3,29.3,29.3,0,0,1-8.61,1.17,23.54,23.54,0,0,1-9.24-1.63,15.75,15.75,0,0,1-6.13-4.5,18.44,18.44,0,0,1-3.41-6.83,32.24,32.24,0,0,1-1.09-8.62q0-2,.31-6.21a67.68,67.68,0,0,1,1.48-9.46A65.66,65.66,0,0,1,362,79a37.36,37.36,0,0,1,6.05-10,31,31,0,0,1,9.47-7.45,29.39,29.39,0,0,1,13.74-3,34,34,0,0,1,5.43.47,23.18,23.18,0,0,1,5.74,1.7,15.3,15.3,0,0,1,5,3.57,16.24,16.24,0,0,1,3.41,6.06h.93Zm-17.38,13.5q-3.74,0-6.21,4a36.66,36.66,0,0,0-4,9.23,71.41,71.41,0,0,0-2.25,10.48,65.54,65.54,0,0,0-.7,7.68,12,12,0,0,0,1,5.2,3.69,3.69,0,0,0,3.65,2.1,6.45,6.45,0,0,0,3-.78,20.29,20.29,0,0,0,2.79-1.78,19.19,19.19,0,0,0,2.33-2.1,21.39,21.39,0,0,0,1.47-1.71L408.19,79a32.07,32.07,0,0,0-2.87-3.41A5.24,5.24,0,0,0,401.37,73.83Z"
        transform="translate(-1.09 -22.58)"
        style="fill:#00acee"/>
    <path
        d="M475.09,127.07H443.58L457.7,60.33h31.82ZM493.56,40a12.54,12.54,0,0,1-1.48,6.21,14.7,14.7,0,0,1-3.88,4.5,16.58,16.58,0,0,1-5.51,2.8,22,22,0,0,1-6.36.93,17.59,17.59,0,0,1-10.4-3q-4.2-2.94-4.19-9.31A13.21,13.21,0,0,1,463.13,36a12.88,12.88,0,0,1,3.81-4.5,17.43,17.43,0,0,1,5.59-2.72,23.27,23.27,0,0,1,6.59-.93,17.34,17.34,0,0,1,10.25,2.95C492.16,32.8,493.56,35.86,493.56,40Z"
        transform="translate(-1.09 -22.58)"
        style="fill:none"/>
    <path
        d="M528.94,88.57l36.17-28.24h20.48l-30.88,25.3,23.12,41.44H543.07l-15.83-31.2-6.52,31.2H489.05l22-104.3h31.82Z"
        transform="translate(-1.09 -22.58)"
        style="fill:#00acee"/>
    <path
        d="M449,116.79a11.87,11.87,0,0,1,1.4-5.82A13.21,13.21,0,0,1,454,106.7a16.09,16.09,0,0,1,5.12-2.56,21.24,21.24,0,0,1,6-.85,16.41,16.41,0,0,1,9.7,2.79q4,2.81,4,8.54a12.3,12.3,0,0,1-4.89,10.09,15.88,15.88,0,0,1-5.12,2.56,21.42,21.42,0,0,1-6.13.85,16.41,16.41,0,0,1-9.7-2.79Q449,122.54,449,116.79ZM466.2,22.58h31.66L478,95.68H456Z"
        transform="translate(-1.09 -22.58)"
        style="fill:#00acee"/>
    <path
        d="M616.7,29.3h-8.92L601.2,60.24h-12l6.59-30.94H587l1-4.21h29.62Z"
        transform="translate(-1.09 -22.58)"
        style="fill:#00acee"/>
    <path
        d="M618.25,25.09h12.62l1.88,23.81,11.51-23.81h5.48L633.36,60.24H620.29Z"
        transform="translate(-1.09 -22.58)"
        style="fill:#00acee"/>
</svg>
